<?xml version="1.0" encoding="UTF-8"?>
<svg xmlns="http://www.w3.org/2000/svg" viewBox="0 0 160 200">
  <defs>
    <linearGradient id="p" x1="0" x2="0" y1="0" y2="1">
      <stop offset="0" stop-color="#fdfdf8"/>
      <stop offset="1" stop-color="#f1f2ea"/>
    </linearGradient>
  </defs>
  <rect x="20" y="10" width="120" height="180" rx="8" fill="url(#p)" stroke="#1f2937" stroke-width="3"/>
  <g stroke="#1f2937" stroke-width="2">
    <line x1="35" y1="30" x2="135" y2="30" opacity=".25"/>
    <line x1="35" y1="50" x2="135" y2="50" opacity=".25"/>
    <line x1="35" y1="70" x2="135" y2="70" opacity=".25"/>
    <line x1="35" y1="90" x2="135" y2="90" opacity=".25"/>
    <line x1="35" y1="110" x2="135" y2="110" opacity=".25"/>
    <line x1="35" y1="130" x2="135" y2="130" opacity=".25"/>
    <line x1="35" y1="150" x2="135" y2="150" opacity=".25"/>
    <line x1="35" y1="170" x2="135" y2="170" opacity=".25"/>
  </g>
  <g fill="#1f2937">
    <circle cx="28" cy="32" r="3"/>
    <circle cx="28" cy="52" r="3"/>
    <circle cx="28" cy="72" r="3"/>
    <circle cx="28" cy="92" r="3"/>
    <circle cx="28" cy="112" r="3"/>
    <circle cx="28" cy="132" r="3"/>
    <circle cx="28" cy="152" r="3"/>
    <circle cx="28" cy="172" r="3"/>
  </g>
</svg>

